<?xml version="1.0" standalone="no"?><!DOCTYPE svg PUBLIC "-//W3C//DTD SVG 1.1//EN" "http://www.w3.org/Graphics/SVG/1.1/DTD/svg11.dtd"><svg t="1584106198539" class="icon" viewBox="0 0 1024 1024" version="1.1" xmlns="http://www.w3.org/2000/svg" p-id="752" xmlns:xlink="http://www.w3.org/1999/xlink" width="200" height="200"><defs><style type="text/css"></style></defs><path d="M139.17297778 397.87350597V149.19788215l248.55134814-0.12427566 0.12427568 248.67562381L139.17297778 397.87350597z m248.67562382-331.5260732H139.0487021A82.85044939 82.85044939 0 0 0 56.32252839 149.1150317v248.7998995a82.85044939 82.85044939 0 0 0 82.72617371 82.72617371h248.7998995A82.85044939 82.85044939 0 0 0 470.57477531 397.87350597V149.1150317a82.85044939 82.85044939 0 0 0-82.72617371-82.72617371zM139.17297778 894.97620227v-248.67562382l248.55134814-0.12427568 0.12427568 248.67562382L139.17297778 894.97620227z m248.67562382-331.5260732H139.0487021A82.85044939 82.85044939 0 0 0 56.32252839 646.217728v248.7998995a82.85044939 82.85044939 0 0 0 82.72617371 82.72617371h248.7998995A82.85044939 82.85044939 0 0 0 470.57477531 894.97620227V646.217728a82.85044939 82.85044939 0 0 0-82.72617371-82.72617371zM760.63419859 449.36506027l-175.8500788-175.85007882 175.68437791-175.85007882 175.93292927 175.72580315-175.76722838 175.97435449z m234.34249608-234.34249609l-175.93292925-175.93292925a82.85044939 82.85044939 0 0 0-116.98483454 0L526.12600162 214.98113897a82.14622057 82.14622057 0 0 0-24.15090599 58.32671636 82.14622057 82.14622057 0 0 0 24.15090599 58.65811816l175.93292926 175.97435449a82.72617371 82.72617371 0 0 0 116.98483454-0.04142523l175.93292925-175.93292926a82.76759893 82.76759893 0 0 0 0-116.98483452zM636.27567408 894.97620227v-248.67562382l248.55134814-0.12427568 0.12427568 248.67562382-248.67562382 0.12427568z m248.67562382-331.5260732h-248.7998995A82.85044939 82.85044939 0 0 0 553.42522469 646.217728v248.7998995a82.85044939 82.85044939 0 0 0 82.72617371 82.72617371h248.7998995A82.85044939 82.85044939 0 0 0 967.67747161 894.97620227V646.217728a82.85044939 82.85044939 0 0 0-82.72617371-82.72617371z" p-id="753"></path></svg>