<?xml version="1.0" standalone="no"?><!DOCTYPE svg PUBLIC "-//W3C//DTD SVG 1.1//EN" "http://www.w3.org/Graphics/SVG/1.1/DTD/svg11.dtd"><svg t="1584106402850" class="icon" viewBox="0 0 1024 1024" version="1.1" xmlns="http://www.w3.org/2000/svg" p-id="876" xmlns:xlink="http://www.w3.org/1999/xlink" width="200" height="200"><defs><style type="text/css"></style></defs><path d="M861.83602252 232.37973333h-155.3445926c0-106.8770797-86.99297185-193.87005155-193.87005155-193.87005155S318.12994845 125.50265363 318.12994845 232.37973333h-155.3445926c-42.87510755 0-77.05091792 34.79718875-77.6722963 77.6722963v578.50326282c0 42.87510755 34.79718875 77.6722963 77.6722963 77.6722963h699.67204504c42.87510755 0 77.05091792-34.79718875 77.67229629-77.6722963V310.05202963c-1.24275675-42.87510755-35.41856711-77.6722963-78.29367466-77.6722963zM512 109.346816c64.00197215 0 116.81913363 52.19578311 116.81913363 116.81913363H395.18086637c0-64.00197215 52.81716148-116.81913363 116.81913363-116.81913363zM162.78535585 894.14769778v-590.30945186h155.3445926v97.55640416c-23.61237808 13.67032415-39.7682157 39.14683733-39.7682157 68.35162074 0 43.49648592 35.41856711 78.29367467 78.29367466 78.29367466s78.29367467-35.41856711 78.29367467-78.29367466c0-29.20478341-16.15583763-54.68129659-39.76821571-68.35162074V303.83824592h233.01688888v97.55640416c-23.61237808 13.67032415-39.7682157 39.14683733-39.7682157 68.35162074 0 43.49648592 35.41856711 78.29367467 78.29367467 78.29367466s78.29367467-35.41856711 78.29367467-78.29367466c0-29.20478341-16.15583763-54.68129659-39.76821571-68.35162074V303.83824592h155.3445926v590.30945186H162.78535585z" p-id="877"></path></svg>