<?xml version="1.0" standalone="no"?><!DOCTYPE svg PUBLIC "-//W3C//DTD SVG 1.1//EN" "http://www.w3.org/Graphics/SVG/1.1/DTD/svg11.dtd"><svg t="1588300459519" class="icon" viewBox="0 0 1024 1024" version="1.1" xmlns="http://www.w3.org/2000/svg" p-id="8966" xmlns:xlink="http://www.w3.org/1999/xlink" width="200" height="200"><defs><style type="text/css"></style></defs><path d="M810.920107 640a42.666667 42.666667 0 0 1 42.368 37.674667L853.586773 682.666667v163.413333a128 128 0 0 1-128 128H256.25344a128 128 0 0 1-128-128V682.666667l0.298667-4.992a42.666667 42.666667 0 0 1 84.736 0L213.586773 682.666667v163.413333a42.666667 42.666667 0 0 0 37.674667 42.368l4.992 0.256h469.333333a42.666667 42.666667 0 0 0 42.368-37.674667l0.298667-4.992V682.666667l0.298667-4.992A42.666667 42.666667 0 0 1 810.920107 640z m13.568-558.037333h0.426666c1.152 0 2.218667 0.085333 3.328 0.170666l-3.754666-0.170666a43.093333 43.093333 0 0 1 25.301333 8.277333l1.834667 1.493333c3.114667 2.56 5.930667 5.546667 8.277333 9.088l0.896 1.450667c0.256 0.298667 0.426667 0.682667 0.682667 1.066667l91.477333 158.378666A192 192 0 0 1 640.25344 483.328 191.658667 191.658667 0 0 1 490.920107 554.666667 191.616 191.616 0 0 1 341.586773 483.370667 192 192 0 0 1 25.21344 267.946667l0.469333-0.853334 94.549334-163.754666 0.426666-0.64c0.426667-0.853333 0.981333-1.621333 1.493334-2.389334l-1.92 2.986667a43.050667 43.050667 0 0 1 24.874666-19.584l1.493334-0.426667a34.176 34.176 0 0 1 6.912-1.152l3.2-0.170666h667.776z m-22.528 88.96H179.70944L100.73344 307.712v0.128a106.666667 106.666667 0 0 0 185.045333 106.154667 65.194667 65.194667 0 0 1 55.978667-31.616c25.6 0 47.786667 14.677333 58.282667 36.010666l-1.536-2.56 2.730666 4.608a106.624 106.624 0 0 0 182.186667-4.565333A64.554667 64.554667 0 0 1 640.25344 382.378667c22.058667 0 41.557333 10.88 53.248 27.52l2.944 4.693333-0.426667-0.597333A106.666667 106.666667 0 1 0 882.17344 309.76L801.960107 170.922667z" p-id="8967"></path></svg>