<?xml version="1.0" standalone="no"?><!DOCTYPE svg PUBLIC "-//W3C//DTD SVG 1.1//EN" "http://www.w3.org/Graphics/SVG/1.1/DTD/svg11.dtd"><svg t="1584431220710" class="icon" viewBox="0 0 1036 1024" version="1.1" xmlns="http://www.w3.org/2000/svg" p-id="1158" xmlns:xlink="http://www.w3.org/1999/xlink" width="202.34375" height="200"><defs><style type="text/css"></style></defs><path d="M778.91328 855.893333H245.579947a234.666667 234.666667 0 0 1-21.333334-469.333333 298.666667 298.666667 0 0 1 594.773334-39.68A256 256 0 0 1 778.91328 855.893333z m-502.186667-85.333333H778.91328a170.666667 170.666667 0 1 0 0-341.333333 42.666667 42.666667 0 0 1-42.666667-42.666667 213.333333 213.333333 0 1 0-426.666666 0v8.96a235.093333 235.093333 0 0 1 170.666666 225.706667 42.666667 42.666667 0 1 1-85.333333 0 149.333333 149.333333 0 0 0-148.906667-149.333334 149.333333 149.333333 0 0 0 0 298.666667h16.64a42.666667 42.666667 0 0 1 14.08 0z" p-id="1159"></path></svg>