<?xml version="1.0" standalone="no"?><!DOCTYPE svg PUBLIC "-//W3C//DTD SVG 1.1//EN" "http://www.w3.org/Graphics/SVG/1.1/DTD/svg11.dtd"><svg t="1588300511515" class="icon" viewBox="0 0 1121 1024" version="1.1" xmlns="http://www.w3.org/2000/svg" p-id="9094" xmlns:xlink="http://www.w3.org/1999/xlink" width="218.9453125" height="200"><defs><style type="text/css"></style></defs><path d="M974.857 454.186V790.57c0 89.529-69.257 162.858-155.7 162.858H333.414c-86.443 0-155.7-73.329-155.7-162.858V462.157a275.1 275.1 0 0 1-26.657-15.943A120 120 0 0 1 118.23 280.1l116.785-175.157a77.143 77.143 0 0 1 64.2-34.372h540a77.143 77.143 0 0 1 64.157 34.372L1020.157 280.1a120 120 0 0 1-32.828 166.114 297.429 297.429 0 0 1-12.472 7.972z m-728.571 28.328v308.057c0 52.5 39.428 94.286 87.128 94.286h485.743c47.657 0 87.129-41.786 87.129-94.286v-309.6a132.77 132.77 0 0 1-21.643 1.758c-63.643 0-115.5-21.043-150.986-62.315-41.1 39.772-96.086 62.315-158.657 62.315-68.143 0-128.914-21.772-170.786-61.715-35.485 40.886-87.128 61.715-150.428 61.715-2.486 0-5.015-0.043-7.5-0.215z m153.771-154.028a34.286 34.286 0 0 1 30.857 16.971c25.115 42.986 78.172 68.7 144.086 68.7 57.129 0 103.714-25.543 133.114-69.728a34.286 34.286 0 0 1 60.3 4.285c20.872 43.972 58.929 65.443 116.229 65.443 17.743 0 39.257-7.886 64.414-24.857a51.429 51.429 0 0 0 14.057-71.143l-116.785-175.2a8.571 8.571 0 0 0-7.115-3.814h-540A8.571 8.571 0 0 0 292.1 143L175.314 318.114a51.429 51.429 0 0 0 14.057 71.143c25.158 16.972 46.715 24.857 64.415 24.857 57.557 0 95.657-21.643 116.528-66a34.286 34.286 0 0 1 29.229-19.671h0.514z" p-id="9095"></path><path d="M447.714 760.571h257.143a34.286 34.286 0 1 0 0-68.571H447.714a34.286 34.286 0 1 0 0 68.571z" p-id="9096"></path></svg>