<?xml version="1.0" standalone="no"?><!DOCTYPE svg PUBLIC "-//W3C//DTD SVG 1.1//EN" "http://www.w3.org/Graphics/SVG/1.1/DTD/svg11.dtd"><svg t="1584106588009" class="icon" viewBox="0 0 1024 1024" version="1.1" xmlns="http://www.w3.org/2000/svg" p-id="753" xmlns:xlink="http://www.w3.org/1999/xlink" width="200" height="200"><defs><style type="text/css"></style></defs><path d="M973.66479741 263.84633401s-8.48388603-10.60485751-11.31184802-12.72582903c-20.50272455-16.26078154-33.93554407-23.33068654-60.80118311-38.17748707l-9.89786703-5.65592401L752.37677046 130.22512925l-144.93305277-80.59691716c-27.57262956-14.84680053-60.09419262-24.03767705-95.44371769-24.03767706s-67.87108813 8.48388603-96.8576987 24.03767706L268.08827701 130.22512925 134.46707225 203.04515089 94.87560417 224.96185644c-19.79573404 10.60485751-35.34952507 26.15864854-46.6613731 44.54040159-13.43281952 19.79573404-21.91670555 43.12642059-21.91670553 68.57807863v339.35544067c0 47.36836359 27.57262956 89.08080318 67.87108813 111.70449921l41.00544908 21.91670555L443.42192138 978.61373093c19.79573404 10.60485751 43.12642059 16.96777203 68.57807862 16.96777202s48.78234459-6.36291451 69.28506914-17.67476252l309.66183961-168.26373935 38.17748708-20.50272454c41.00544908-22.62369604 68.57807862-64.33613563 68.57807863-112.41148971v-339.35544068c0-27.57262956-9.19087652-53.02428761-24.03767705-73.52701214z m-762.1357605-7.06990501l190.18044487-100.39265121 46.6613731-24.74466753c19.79573404-10.60485751 36.05651557-17.67476253 61.50817362-17.67476255s55.8522496 14.84680053 76.35497415 26.15864855l32.52156306 16.26078153 188.76646388 103.22061322c9.89786702 7.06990501 9.89786702 7.06990501 8.483886 11.31184801l-304.00591559 156.95189131-311.78281111-159.77985332c-2.1209715-3.5349525 7.06990501-9.89786702 11.31184802-11.31184801z m231.18589395 620.03066972l-289.15911507-160.48684382-0.7069905-0.70699049c-25.45165805-15.55379103-41.00544908-28.98661055-41.00544909-60.09419263V336.66635566c0-1.41398101-1.41398101-9.19087652 0.70699052-15.55379104 0.7069905-0.7069905 1.41398101-1.41398101 2.82796199-0.7069905l35.34952508 18.38175303 91.90876518 48.7823446-0.7069905 125.13731875c0 8.48388603 4.9489335 16.26078154 12.01883853 20.50272454l55.85224961 29.69360107c9.19087652 4.9489335 19.79573404-1.41398101 19.79573404-12.01883853V431.40308285l135.74217625 69.99205964-0.70699049 386.72380425c-15.55379103-5.65592402-14.84680053-7.06990501-21.91670555-11.31184802zM907.91468079 318.99159312c7.77689552 2.82796201 4.9489335 6.36291451 4.9489335 17.67476254v319.55970662c0 32.52156306-13.43281952 45.9543826-38.17748707 60.80118313l-7.77689553 4.24194301-287.74513406 156.9518913c-7.06990501 4.24194301-4.9489335 4.24194301-19.79573404 11.31184803 0-98.27167969-0.7069905-296.93601058-0.70699049-386.72380427M107.60143321 316.16363111l419.95235782 217.75307444" p-id="754"></path><path d="M57.40510759 251.82749548l-15.55379102 25.45165805c1.41398101-2.82796201 4.24194301-4.9489335 5.65592402-7.7768955l2.1209715-4.24194301 7.7768955-13.43281954z" p-id="755"></path></svg>